<svg id="Layer_5" enable-background="new 0 0 64 64" height="512" viewBox="0 0 64 64" width="512" xmlns="http://www.w3.org/2000/svg"><g><path d="m58 1h-52c-2.757 0-5 2.243-5 5v24c0 2.757 2.243 5 5 5h2v13.171c0 2.091.814 4.057 2.293 5.536 1.478 1.479 3.443 2.293 5.535 2.293h4.172v7h24v-7h4.172c2.092 0 4.058-.814 5.535-2.293 1.479-1.479 2.293-3.445 2.293-5.536v-13.171h2c2.757 0 5-2.243 5-5v-24c0-2.757-2.243-5-5-5zm-55 29v-24c0-1.654 1.346-3 3-3h52c1.654 0 3 1.346 3 3v7h-3c-1.13 0-2.162.391-3 1.026v-7.026c0-1.103-.897-2-2-2h-42c-1.103 0-2 .897-2 2v22c0 1.103.897 2 2 2h9.11c-.071.377-.11.763-.11 1.156 0 .284.029.565.068.844h-14.068c-1.654 0-3-1.346-3-3zm43.024 5c.059.975.451 1.888 1.148 2.586l.828.828v8.751c0 .509-.443.919-.984.821l-10.202-1.855-.371-1.483c1.322-.886 2.362-2.156 2.969-3.648h.588c2.206 0 4-1.794 4-4 0-.732-.212-1.409-.556-2zm-30.024 3.414.828-.828c.698-.698 1.089-1.61 1.148-2.586h2.58c-.344.591-.556 1.268-.556 2 0 2.206 1.794 4 4 4h.589c.606 1.492 1.647 2.762 2.969 3.648l-.371 1.483-10.205 1.855c-.512.089-.982-.312-.982-.82zm6-6.258c0-1.124.438-2.179 1.231-2.973l.769-.769v-.414c0-2.757 2.243-5 5-5h6.513c1.371 0 2.487 1.116 2.487 2.487 0 1.072-.684 2.021-1.699 2.359l-.616.205.631 1.897.617-.205c1.184-.395 2.111-1.251 2.624-2.326 1.51.865 2.443 2.444 2.443 4.2 0 .599-.118 1.197-.335 1.756-.509-.233-1.069-.373-1.665-.373v-2h-4.528c-2.771 0-5.546-.655-8.024-1.895l-.448-.223-.447.224c-1.503.751-2.453 2.23-2.537 3.894h-.016c-.648 0-1.252.17-1.794.445-.135-.417-.206-.85-.206-1.289zm18 5.844v-3c1.103 0 2 .897 2 2s-.897 2-2 2h-.069c.041-.328.069-.661.069-1zm-8 6c-3.309 0-6-2.691-6-6v-4.764c0-.842.395-1.612 1.054-2.1 2.625 1.221 5.523 1.864 8.418 1.864h2.528v5c0 3.309-2.691 6-6 6zm-8-9v3c0 .339.028.672.069 1h-.069c-1.103 0-2-.897-2-2s.897-2 2-2zm6.586 16-1.821 1.822-.456-4.099zm-1.479-4.307.285-1.139c.819.284 1.694.446 2.608.446s1.789-.162 2.608-.445l.285 1.139-2.893 2.892zm6.584 2.03-.456 4.099-1.821-1.822zm4.52-23.236-.222-.111c-.06-2.422-2.04-4.376-4.476-4.376h-6.513c-3.717 0-6.766 2.911-6.987 6.573l-.195.195c-.373.373-.687.789-.949 1.232h-9.869v-22h42v22h-9.524c-.617-1.499-1.751-2.755-3.265-3.513zm20.789-10.487v6h-3c-1.654 0-3-1.346-3-3s1.346-3 3-3zm-45.024 20c-.054.441-.243.852-.562 1.172l-.828.828h-4.586v-2zm36.317 17.293c-1.101 1.101-2.564 1.707-4.121 1.707h-6.172v7h-20v-7h-6.172c-1.557 0-3.021-.606-4.121-1.707-1.101-1.101-1.707-2.565-1.707-4.122v-9.171h4v8.166c0 1.563 1.271 2.834 2.835 2.834.17 0 .342-.015.507-.046l8.911-1.62.982 8.844 4.765-4.764 4.765 4.764.982-8.844 8.908 1.62c.168.031.34.046.51.046 1.564 0 2.835-1.271 2.835-2.834v-8.166h4v9.171c0 1.557-.606 3.021-1.707 4.122zm1.707-15.293h-4.586l-.828-.828c-.32-.32-.509-.731-.562-1.172h5.976zm4-4h-14.15c.094-.455.15-.918.15-1.382 0-.209-.025-.413-.043-.618h9.043c1.103 0 2-.897 2-2v-7.026c.838.635 1.87 1.026 3 1.026h3v7c0 1.654-1.346 3-3 3z"/><circle cx="58" cy="18" r="1"/><circle cx="58" cy="30" r="1"/><path d="m5 14h2v8h-2z"/><path d="m5 7h2v2h-2z"/><path d="m5 27h2v2h-2z"/><path d="m13 19h18v-10h-18zm2-8h14v6h-14z"/><path d="m33 9h18v2h-18z"/><path d="m49 13h2v2h-2z"/><path d="m33 13h14v2h-14z"/><path d="m33 17h18v2h-18z"/><path d="m45 21h6v2h-6z"/><path d="m45 25h6v2h-6z"/></g></svg>